<?xml version="1.0" standalone="no"?>
<!DOCTYPE svg PUBLIC "-//W3C//DTD SVG 20010904//EN"
 "http://www.w3.org/TR/2001/REC-SVG-20010904/DTD/svg10.dtd">
<svg version="1.0" xmlns="http://www.w3.org/2000/svg"
 width="318.000000pt" height="669.000000pt" viewBox="0 0 318.000000 669.000000"
 preserveAspectRatio="xMidYMid meet">

<g transform="translate(0.000000,669.000000) scale(0.100000,-0.100000)"
fill="#000000" stroke="none">
<path d="M2960 6654 c0 -20 -5 -54 -12 -76 -9 -29 -9 -41 0 -50 15 -15 15 -45
1 -54 -7 -4 -9 2 -7 14 2 12 -1 20 -7 19 -5 -1 -10 -22 -10 -47 0 -39 3 -45
21 -46 11 -1 29 -7 40 -13 18 -12 18 -12 -3 -8 -26 6 -32 -10 -8 -19 11 -5 13
-10 5 -19 -8 -9 -6 -14 6 -19 22 -9 24 -8 24 9 0 8 7 15 15 15 26 0 16 -28
-12 -34 -65 -14 -77 -15 -89 -5 -9 7 -16 5 -23 -10 -14 -26 -14 -98 0 -103 16
-5 3 -60 -19 -84 -24 -26 -45 -80 -37 -93 9 -15 -8 -14 -23 1 -12 12 -16 -3
-15 -62 1 -14 -5 -29 -13 -33 -8 -4 -14 -15 -14 -22 0 -30 -46 -15 -87 28 -58
61 -168 149 -233 185 -175 99 -189 103 -390 108 -85 2 -177 6 -205 9 -109 13
-212 -2 -300 -45 -22 -10 -47 -21 -55 -25 -8 -3 -28 -14 -45 -25 -16 -11 -46
-28 -65 -39 -19 -11 -48 -31 -65 -46 -16 -14 -50 -42 -75 -63 -56 -46 -188
-177 -218 -217 -58 -77 -172 -250 -172 -261 0 -7 -3 -14 -8 -16 -9 -4 -87
-159 -87 -175 0 -7 -6 -18 -13 -25 -6 -6 -12 -17 -12 -23 0 -7 -7 -25 -15 -42
-16 -32 -55 -165 -75 -253 -7 -30 -18 -73 -26 -95 -17 -48 -17 -58 -4 -50 9 6
-11 -54 -31 -89 -7 -13 -7 -16 0 -11 14 8 14 -8 1 -76 -6 -30 -13 -74 -15 -99
-2 -25 -11 -59 -19 -75 -8 -17 -17 -49 -21 -73 -4 -23 -10 -40 -13 -38 -4 2
-8 -15 -10 -37 -1 -23 -7 -55 -12 -72 -6 -16 -24 -76 -41 -132 -22 -75 -39
-111 -63 -137 -18 -20 -38 -36 -45 -36 -7 0 -10 -4 -7 -9 7 -11 -38 -41 -70
-47 -58 -11 -100 -41 -226 -166 -45 -45 -58 -64 -58 -88 0 -16 3 -30 6 -30 11
0 33 28 27 34 -4 3 -1 6 5 6 7 0 12 5 12 11 0 15 26 39 34 32 3 -4 6 0 6 8 1
16 80 74 80 58 0 -13 -146 -159 -160 -159 -7 0 -10 -197 -10 -616 0 -407 3
-613 10 -609 6 3 10 0 10 -7 0 -8 16 -38 35 -68 36 -57 44 -90 23 -90 -17 1
-46 41 -63 88 -14 37 -14 37 -14 -40 l-1 -78 47 -30 c41 -25 44 -32 13 -32 -3
-1 -17 2 -33 6 -24 6 -27 4 -27 -19 0 -22 4 -25 39 -25 42 0 53 -9 57 -46 2
-18 -7 -26 -47 -42 -49 -21 -49 -21 -49 -69 l0 -47 28 34 c16 18 36 34 45 36
15 2 15 -1 1 -34 -8 -21 -19 -41 -25 -47 -17 -17 -10 -37 11 -30 27 8 27 -20
0 -37 -16 -10 -18 -20 -13 -58 3 -25 10 -51 15 -57 12 -16 2 -62 -19 -85 -16
-18 -10 -38 13 -38 8 0 14 -10 14 -25 0 -22 -4 -25 -32 -23 -29 3 -33 0 -36
-25 -3 -23 2 -30 32 -42 28 -12 36 -21 36 -40 0 -14 -5 -25 -11 -25 -7 0 -8
-11 -4 -30 6 -28 5 -30 -24 -30 l-31 0 0 -141 c0 -102 3 -138 11 -133 8 5 10
-3 4 -27 -15 -71 -17 -191 -3 -200 10 -7 11 -12 0 -29 -17 -27 -17 -144 0
-134 10 6 10 4 1 -7 -15 -15 -18 -183 -4 -174 5 3 12 1 15 -4 3 -5 -1 -11 -9
-15 -8 -3 -15 -11 -14 -18 0 -10 2 -10 6 0 8 19 22 14 20 -8 -1 -11 -7 -20
-14 -20 -21 0 -18 -169 4 -185 16 -12 9 -40 -8 -30 -5 4 -9 -39 -9 -104 l0
-111 1335 0 1336 0 6 33 c4 17 6 36 5 40 -1 4 4 49 12 100 8 51 20 156 27 234
7 83 16 140 22 136 5 -3 6 -18 3 -34 -3 -15 -1 -31 4 -34 5 -3 5 -18 0 -35 -6
-23 -5 -30 5 -30 18 0 24 20 19 71 -4 43 -4 57 -4 102 0 75 1 74 -15 53 -8
-11 -16 -31 -16 -45 -1 -14 -8 24 -15 84 -17 145 -16 355 2 348 9 -3 12 6 11
34 -1 21 -5 40 -9 43 -10 8 3 51 13 44 5 -3 9 0 9 5 0 6 -4 11 -10 11 -5 0
-10 7 -10 15 0 18 20 20 20 3 0 -7 5 -5 11 6 7 11 9 38 5 67 -4 28 -3 49 3 49
16 0 19 83 4 105 -14 19 -14 19 -11 1 2 -10 -3 -21 -9 -23 -14 -5 -17 39 -4
70 6 16 9 16 18 5 6 -7 13 -20 15 -28 7 -21 33 43 42 105 5 27 14 58 22 69 8
11 14 35 14 53 0 17 6 36 13 40 12 8 15 18 20 81 1 18 9 37 16 41 8 5 10 14 6
21 -5 8 -4 11 3 7 6 -5 13 8 17 33 4 22 11 43 16 46 14 9 -10 34 -32 34 -11 0
-19 4 -19 10 0 6 9 6 26 0 34 -13 34 -13 34 10 0 22 -15 27 -24 8 -3 -7 -2 1
1 17 9 43 33 77 51 70 10 -3 12 0 8 10 -3 8 -1 15 3 15 5 0 12 -6 14 -12 4 -9
6 -8 6 2 1 9 -4 21 -11 28 -8 8 -8 15 -1 24 6 7 27 45 48 83 20 39 47 79 59
90 12 12 21 26 18 33 -2 7 2 11 10 10 7 -2 12 3 10 10 -1 7 4 20 13 28 13 13
15 61 15 322 0 202 -4 302 -10 292 -5 -8 -10 -13 -11 -10 -8 50 -7 61 7 56 8
-3 14 1 14 9 0 8 -7 15 -15 15 -8 0 -15 9 -15 20 0 11 7 23 15 26 8 4 15 10
15 15 0 5 -7 9 -15 9 -8 0 -15 5 -15 10 0 6 7 10 15 10 8 0 15 5 15 10 0 6 -4
10 -10 10 -5 0 -10 7 -10 15 0 8 4 15 10 15 6 0 10 553 10 1560 0 1385 -1
1560 -15 1560 -19 0 -19 14 -1 29 10 9 14 49 15 166 l2 155 -110 0 -111 0 0
-36z m193 -211 c-7 -2 -19 -2 -25 0 -7 3 -2 5 12 5 14 0 19 -2 13 -5z m-13
-43 c0 -9 -49 -25 -65 -21 -17 4 -6 17 20 22 45 10 45 10 45 -1z m-21 -61
c-18 -11 -39 -11 -39 0 0 11 31 20 44 13 4 -2 2 -8 -5 -13z m1 -279 c0 -5 -4
-10 -10 -10 -5 0 -10 5 -10 10 0 6 5 10 10 10 6 0 10 -4 10 -10z m-270 -89 c0
-6 -4 -13 -10 -16 -5 -3 -10 1 -10 9 0 9 5 16 10 16 6 0 10 -4 10 -9z m150
-21 c8 13 11 13 25 -1 15 -15 14 -17 -12 -21 -15 -3 -39 -4 -53 -3 -14 2 -33
4 -43 4 -10 1 -15 6 -12 11 4 6 12 10 18 9 27 -3 38 2 31 14 -4 6 3 3 15 -8
19 -16 24 -17 31 -5z m150 -12 c-1 -28 -2 -30 -11 -15 -6 10 -8 25 -5 33 9 24
16 16 16 -18z m-53 0 c-3 -8 -6 -5 -6 6 -1 11 2 17 5 13 3 -3 4 -12 1 -19z
m-267 -88 c0 -5 -5 -10 -11 -10 -5 0 -7 5 -4 10 3 6 8 10 11 10 2 0 4 -4 4
-10z m-530 -156 c0 -8 9 -14 20 -14 12 0 28 -13 39 -31 10 -17 22 -30 25 -29
11 1 34 -26 34 -41 -2 -33 3 -50 12 -44 6 4 10 -5 10 -19 0 -14 5 -26 10 -26
6 0 15 -20 22 -45 7 -24 15 -41 18 -36 3 5 5 -11 6 -35 0 -24 5 -49 11 -56 18
-22 22 -68 6 -68 -11 0 -11 -4 -2 -21 7 -14 17 -19 31 -16 15 4 18 3 10 -5
-12 -12 -5 -65 11 -85 5 -7 7 -22 4 -33 -3 -13 1 -21 13 -25 24 -8 34 -35 14
-35 -23 0 -84 31 -84 42 0 6 -35 7 -92 2 -51 -4 -100 -7 -108 -6 -38 1 -206
-61 -222 -83 -5 -7 -8 -7 -8 0 0 6 -5 3 -10 -5 -14 -21 -12 -30 4 -24 8 3 17
1 21 -5 3 -6 13 -11 21 -11 8 0 12 4 9 10 -9 15 43 24 60 10 12 -10 21 -10 38
-2 44 21 85 30 130 28 26 -1 47 2 47 7 0 17 80 0 101 -21 29 -32 15 -45 -43
-39 -76 9 -224 -19 -281 -54 -57 -35 -57 -34 -57 -9 0 16 -7 20 -30 20 -19 0
-30 -5 -30 -14 0 -7 -10 -24 -22 -37 -20 -22 -23 -33 -20 -97 2 -39 8 -72 12
-72 5 0 16 15 25 34 15 30 21 34 70 40 30 3 66 11 80 16 22 8 25 13 15 25 -15
18 -3 55 18 55 9 -1 26 -15 37 -33 21 -33 19 -33 168 -52 26 -3 45 -10 42 -15
-3 -5 -11 -8 -18 -6 -7 1 -9 1 -4 -1 4 -3 7 -12 7 -21 0 -25 -52 -44 -121 -45
-33 0 -62 -4 -65 -9 -3 -4 3 -8 13 -9 10 0 39 -3 64 -5 35 -4 59 1 95 17 27
13 51 27 52 31 2 4 10 8 18 8 9 0 12 5 9 10 -6 9 8 15 29 11 4 -1 18 5 30 12
27 18 76 19 76 1 0 -7 -7 -19 -15 -28 -19 -18 -19 -26 -1 -26 11 0 13 -9 9
-37 -3 -21 -11 -42 -17 -46 -7 -6 -7 -10 -1 -13 13 -5 7 -145 -7 -161 -5 -7
-7 -16 -4 -21 3 -5 -4 -18 -15 -28 -11 -10 -17 -24 -14 -33 3 -8 0 -18 -7 -23
-10 -8 -10 -11 0 -15 6 -2 12 -12 11 -21 0 -11 -2 -12 -6 -4 -15 37 -28 -2
-36 -113 -2 -22 -6 -46 -10 -52 -4 -6 -4 -18 -1 -26 3 -8 1 -18 -5 -22 -6 -3
-11 -15 -11 -26 0 -10 -6 -19 -12 -20 -10 0 -10 -2 0 -6 10 -4 10 -8 -2 -17
-12 -9 -13 -19 -7 -49 7 -30 6 -40 -5 -44 -8 -3 -14 -13 -14 -24 0 -10 -9 -23
-21 -29 -16 -9 -18 -14 -9 -25 12 -15 -2 -55 -20 -55 -13 0 -13 17 0 25 12 7
4 25 -11 25 -5 0 -9 -6 -9 -13 0 -21 -47 -41 -92 -40 -32 2 -41 -2 -45 -17 -3
-11 -9 -20 -14 -20 -5 0 -9 -11 -9 -24 0 -13 -11 -34 -25 -47 -13 -13 -25 -30
-25 -36 0 -7 -8 -13 -17 -13 -11 0 -14 -3 -7 -10 7 -7 -10 -31 -50 -74 -38
-39 -64 -59 -68 -52 -5 6 -8 2 -8 -11 0 -17 4 -21 18 -16 14 6 15 4 4 -9 -10
-13 -9 -17 10 -22 21 -6 22 -7 6 -20 -26 -19 -22 -28 10 -24 15 2 26 8 24 16
-3 19 12 14 26 -9 9 -14 17 -17 25 -11 7 5 20 12 30 15 14 5 16 2 11 -20 -8
-31 -38 -63 -60 -63 -9 0 -14 -7 -12 -17 6 -29 28 -26 39 6 11 32 29 42 29 17
0 -8 5 -18 10 -21 6 -4 9 -1 8 6 -2 6 3 14 10 16 7 3 12 -3 12 -14 0 -11 5
-24 12 -31 8 -8 9 -12 1 -12 -6 0 -14 -13 -18 -29 -3 -16 -13 -32 -21 -35 -11
-4 -12 -10 -4 -25 13 -26 13 -32 -2 -29 -8 2 -12 -6 -10 -19 2 -13 -2 -23 -8
-23 -14 0 -6 -76 10 -95 8 -10 21 -13 37 -8 19 4 24 2 21 -8 -3 -8 -11 -14
-19 -15 -8 0 -22 -2 -32 -2 -24 -2 -18 -31 11 -59 21 -21 21 -23 5 -24 -15 -1
-15 -2 -2 -6 17 -4 44 -52 35 -61 -3 -3 -12 1 -21 8 -8 7 -15 8 -15 2 0 -11
30 -26 44 -23 5 1 5 -4 -1 -11 -5 -7 -13 -23 -16 -36 -4 -18 0 -25 21 -33 20
-8 29 -7 37 3 5 7 21 13 35 13 18 0 26 6 28 23 3 20 7 22 39 16 31 -6 35 -4
30 10 -8 22 9 21 22 -1 10 -17 12 -17 41 -1 16 9 30 13 30 8 0 -5 -8 -14 -17
-19 -23 -13 -12 -14 22 -1 17 6 33 7 43 1 16 -9 16 -10 0 -16 -10 -4 -25 -5
-33 -1 -8 3 -15 1 -15 -4 0 -6 7 -10 15 -10 18 0 20 -17 3 -22 -8 -3 -4 -10
10 -17 21 -11 24 -10 29 8 3 12 9 21 13 21 4 0 14 24 21 53 7 28 14 47 16 40
4 -12 -9 -84 -27 -148 -6 -22 -13 -49 -14 -60 -1 -11 -5 -27 -8 -35 -3 -8 -13
-53 -23 -100 -9 -47 -20 -98 -25 -115 -5 -16 -21 -75 -35 -130 -34 -126 -62
-194 -143 -350 -28 -55 -128 -142 -204 -179 -101 -48 -147 -57 -268 -54 l-105
3 -21 40 c-25 49 -46 52 -49 7 -2 -18 -5 -35 -7 -37 -5 -5 -74 12 -103 25 -11
5 -47 19 -80 31 -155 57 -265 146 -332 269 -20 37 -38 97 -56 185 -29 144 -46
358 -29 369 6 3 13 2 17 -4 10 -16 25 -11 18 6 -5 14 -3 15 15 5 11 -6 25 -11
31 -11 18 0 12 18 -6 23 -10 3 -3 5 15 6 17 0 32 5 32 10 0 5 9 11 20 14 20 5
29 37 10 37 -18 0 -11 18 9 23 13 3 18 11 15 23 -7 26 19 59 40 51 14 -6 15
-10 5 -28 -6 -12 -7 -19 -1 -15 6 3 12 1 14 -6 3 -7 10 -8 17 -3 10 6 12 24 8
67 -5 52 -4 57 9 41 13 -17 13 -17 14 1 0 10 8 24 17 31 15 11 15 15 4 29 -11
13 -11 16 2 16 8 0 17 9 20 20 3 12 14 20 26 20 12 0 21 5 21 10 0 6 -5 10
-12 10 -6 0 -8 3 -5 7 4 3 1 13 -6 21 -10 13 -7 14 20 10 29 -4 32 -2 36 26 5
36 0 47 -13 26 -8 -12 -10 -11 -10 6 0 11 5 25 11 31 14 14 19 85 7 100 -6 7
-6 18 0 30 11 20 4 73 -9 73 -14 0 -10 34 7 58 14 20 14 22 -5 22 -10 0 -22
-6 -25 -12 -4 -7 -4 -2 -1 12 2 14 5 36 5 49 0 20 3 22 12 13 17 -17 31 -15
24 3 -3 8 -1 15 3 15 5 0 12 -7 15 -16 5 -13 9 -14 21 -4 12 10 15 7 20 -12 7
-28 55 -54 66 -36 4 7 5 16 3 20 -3 4 -1 15 4 25 7 11 6 21 -4 31 -18 18 -18
33 1 26 11 -5 15 1 15 20 0 20 -5 26 -22 26 -20 0 -20 1 -5 18 23 25 21 34
-10 57 -14 11 -34 27 -42 36 -9 9 -26 20 -39 24 -12 3 -34 17 -47 31 -13 13
-29 24 -34 24 -6 0 -24 13 -41 30 -18 18 -36 27 -45 23 -10 -3 -15 0 -13 8 2
8 -4 13 -14 13 -11 -1 -14 4 -11 14 5 12 1 14 -16 9 -18 -4 -24 -1 -28 14 -3
11 -11 18 -18 15 -17 -6 -35 13 -28 30 3 8 -1 14 -11 14 -9 0 -16 5 -16 11 0
6 -13 28 -28 48 -38 48 -97 205 -85 224 3 6 1 7 -5 3 -7 -4 -10 5 -10 26 1 43
-9 149 -16 168 -10 30 -11 168 -1 167 6 -1 9 13 7 31 -2 20 3 41 11 50 15 17
33 93 30 124 -2 9 4 22 12 28 8 7 15 19 15 27 0 8 5 11 10 8 6 -4 7 -12 4 -18
-4 -7 -3 -8 2 -4 12 12 12 30 -1 39 -5 4 2 8 16 8 17 0 30 8 39 25 16 29 60
58 126 80 59 20 364 32 364 15 0 -6 7 -4 16 5 24 23 5 38 -77 59 -50 13 -85
16 -145 11 -44 -4 -83 -10 -89 -15 -5 -4 -28 -10 -50 -13 -22 -4 -64 -18 -93
-33 -29 -14 -55 -24 -58 -22 -7 7 17 68 27 68 5 0 8 3 7 8 -4 14 25 107 39
123 12 14 12 17 -2 23 -15 5 -14 9 5 36 13 18 23 51 26 87 3 32 12 65 20 74 8
9 11 19 7 23 -8 7 26 76 37 76 4 0 5 11 3 23 -4 18 6 34 41 68 25 24 46 50 46
57 0 6 5 12 11 12 5 0 31 10 57 22 41 19 66 22 185 23 85 1 142 6 148 12 6 6
18 9 26 6 8 -3 13 0 11 8 -2 8 3 13 11 11 8 -2 21 0 30 4 22 10 41 14 76 19
17 2 46 10 67 16 27 9 44 9 68 0 25 -8 39 -8 59 2 30 15 51 11 51 -9z m159
-128 c10 -12 8 -13 -9 -9 -25 7 -37 23 -17 23 8 0 20 -6 26 -14z m-129 -666
c-36 -11 -52 -11 -45 0 3 6 21 10 38 9 31 -1 31 -1 7 -9z m342 -792 c-7 -7
-12 -8 -12 -2 0 6 3 14 7 17 3 4 9 5 12 2 2 -3 -1 -11 -7 -17z m-1 -55 c-12
-20 -14 -14 -5 12 4 9 9 14 11 11 3 -2 0 -13 -6 -23z m-21 -52 c0 -5 -9 -7
-20 -4 -11 3 -20 7 -20 9 0 2 9 4 20 4 11 0 20 -4 20 -9z m-34 -42 c3 -6 1
-16 -6 -22 -10 -9 -11 -9 -5 2 4 8 2 17 -6 22 -9 6 -10 9 -2 9 6 0 15 -5 19
-11z m-34 -66 c-6 -3 -9 -10 -6 -15 4 -6 2 -8 -4 -4 -5 3 -12 0 -15 -6 -2 -7
-8 -10 -12 -5 -5 4 0 13 10 21 12 9 16 19 11 32 -7 19 -7 19 11 0 13 -13 15
-20 5 -23z m-335 -565 c-3 -8 -6 -5 -6 6 -1 11 2 17 5 13 3 -3 4 -12 1 -19z
m43 12 c0 -5 -4 -10 -10 -10 -5 0 -10 5 -10 10 0 6 5 10 10 10 6 0 10 -4 10
-10z m865 -471 c-26 -158 -26 -155 -40 -136 -13 18 -8 64 12 102 6 11 14 43
18 70 4 28 9 54 12 58 13 22 13 -9 -2 -94z m-835 41 c0 -5 -4 -10 -10 -10 -5
0 -10 5 -10 10 0 6 5 10 10 10 6 0 10 -4 10 -10z m-1010 -14 c0 -3 -4 -8 -10
-11 -5 -3 -10 -1 -10 4 0 6 5 11 10 11 6 0 10 -2 10 -4z m1666 -38 c-4 -23
-11 -47 -17 -54 -5 -7 -7 -23 -4 -36 3 -15 -3 -37 -19 -63 l-25 -40 -1 37 c0
31 3 36 16 31 14 -5 16 -1 12 21 -5 25 10 88 25 102 4 4 7 16 7 26 0 10 3 18
6 18 4 0 4 -19 0 -42z m-1636 -70 c0 -19 -2 -20 -10 -8 -13 19 -13 30 0 30 6
0 10 -10 10 -22z m1787 -140 c-3 -8 -6 -5 -6 6 -1 11 2 17 5 13 3 -3 4 -12 1
-19z m-231 -30 c-4 -24 -8 -52 -9 -63 -1 -11 -8 -26 -14 -33 -7 -7 -13 -32
-13 -54 0 -22 -6 -54 -14 -71 -17 -39 -47 -149 -53 -199 -3 -21 3 -59 13 -90
19 -56 26 -100 25 -160 0 -33 2 -38 23 -38 13 0 27 7 30 16 3 8 10 13 16 9 9
-6 -12 -63 -35 -95 -6 -8 -13 -33 -14 -55 -2 -22 -7 -45 -13 -52 -5 -7 -8 -18
-5 -25 2 -7 0 -22 -6 -33 -14 -28 -47 -157 -42 -166 3 -4 -2 -9 -10 -13 -8 -3
-15 -2 -15 3 0 5 -9 11 -21 14 l-20 6 20 38 c21 39 49 104 68 158 6 17 14 39
18 50 10 25 12 39 19 93 5 40 4 42 -19 42 -14 0 -26 6 -26 13 -5 43 -8 58 -24
112 -19 64 -24 273 -7 284 5 3 14 29 22 56 7 28 16 55 20 60 4 6 18 44 30 85
43 141 69 191 56 108z m121 -190 c-3 -8 -6 -5 -6 6 -1 11 2 17 5 13 3 -3 4
-12 1 -19z m-22 -60 c-3 -17 -10 -38 -16 -47 -9 -15 -6 12 8 62 8 29 14 19 8
-15z m-2840 -38 c3 -5 1 -10 -4 -10 -6 0 -11 5 -11 10 0 6 2 10 4 10 3 0 8 -4
11 -10z m2815 -58 c0 -5 -7 -17 -15 -28 -15 -19 -20 -8 -9 20 6 17 24 22 24 8z
m-2806 -74 c-4 -6 0 -17 10 -23 18 -13 12 -48 -8 -42 -19 6 -20 77 -1 77 4 0
3 -5 -1 -12z m2776 -7 c0 -11 -4 -23 -10 -26 -6 -4 -10 5 -10 19 0 14 5 26 10
26 6 0 10 -9 10 -19z m-2645 -1 c3 -5 1 -10 -4 -10 -6 0 -11 5 -11 10 0 6 2
10 4 10 3 0 8 -4 11 -10z m2615 -45 c0 -8 -4 -15 -10 -15 -5 0 -7 7 -4 15 4 8
8 15 10 15 2 0 4 -7 4 -15z m0 -34 c0 -19 -23 -71 -31 -71 -13 0 -11 21 4 53
12 26 27 36 27 18z m-2706 -16 c3 -9 0 -15 -9 -15 -9 0 -12 6 -9 15 4 8 7 15
9 15 2 0 5 -7 9 -15z m-34 -35 c0 -16 -4 -30 -8 -30 -4 0 -13 14 -19 30 -10
27 -9 30 8 30 14 0 19 -7 19 -30z m48 -78 c-2 -16 -8 -26 -16 -24 -11 2 -13
-8 -7 -46 3 -26 8 -66 9 -87 l3 -38 -17 24 c-10 13 -17 26 -15 29 2 4 -7 26
-21 50 -26 45 -26 70 1 70 8 0 15 3 16 8 2 26 9 45 20 58 11 14 13 14 21 -1 5
-8 8 -28 6 -43z m-43 -318 c13 -9 29 -13 35 -9 6 4 10 -4 10 -19 0 -19 -5 -26
-20 -26 -21 0 -60 36 -60 57 0 17 5 16 35 -3z m51 -242 c1 -12 -3 -22 -8 -22
-5 0 -7 9 -3 20 5 16 3 19 -11 13 -12 -4 -15 -3 -10 6 11 18 31 8 32 -17z
m2524 -71 c0 -5 -7 -14 -15 -21 -12 -10 -15 -10 -15 2 0 8 3 18 7 21 9 10 23
9 23 -2z m-33 -123 c-3 -8 -6 -5 -6 6 -1 11 2 17 5 13 3 -3 4 -12 1 -19z m40
-25 c-3 -10 -5 -2 -5 17 0 19 2 27 5 18 2 -10 2 -26 0 -35z"/>
<path d="M1402 4841 c-47 -18 -106 -75 -121 -113 -14 -36 7 -48 62 -36 39 8
47 14 52 39 10 43 22 44 47 5 20 -31 28 -36 64 -36 45 0 67 18 78 63 3 15 12
27 19 26 15 -1 55 -17 44 -18 -4 -1 -3 -10 3 -20 8 -16 6 -21 -11 -26 -23 -8
-20 -31 4 -29 10 1 36 2 58 3 40 1 41 2 36 30 -5 21 -2 31 10 35 21 8 3 30
-56 68 -40 25 -54 28 -120 27 -42 -1 -67 -3 -56 -6 30 -7 43 -23 18 -23 -11 0
-42 -2 -69 -6 l-49 -5 35 20 c45 26 14 27 -48 2z"/>
<path d="M2104 4465 c21 -16 32 -13 21 4 -3 6 -14 11 -23 11 -15 -1 -15 -2 2
-15z"/>
<path d="M2070 4435 c0 -14 2 -25 4 -25 2 0 6 11 8 25 3 14 1 25 -3 25 -5 0
-9 -11 -9 -25z"/>
<path d="M2150 4442 c0 -4 4 -12 9 -17 16 -17 15 -59 -1 -90 -8 -16 -13 -36
-11 -42 3 -10 -12 -13 -59 -13 -59 0 -95 -14 -147 -56 -2 -2 1 -10 8 -17 7 -9
25 -13 51 -10 35 4 40 2 40 -17 0 -12 -7 -34 -15 -51 -9 -16 -13 -34 -10 -39
10 -16 -14 -22 -148 -35 -73 -8 -155 -19 -183 -25 -28 -6 -62 -10 -75 -9 -52
5 -69 -1 -69 -21 0 -15 7 -20 25 -20 14 0 33 -4 43 -9 56 -29 71 -33 200 -57
40 -8 45 13 5 21 -16 4 -36 10 -45 16 -10 5 -32 9 -49 9 -26 0 -30 3 -27 23 3
19 9 22 48 23 25 1 97 6 160 12 63 6 119 8 125 4 5 -3 37 -5 71 -4 49 3 61 0
61 -12 0 -9 -8 -16 -17 -16 -10 0 -23 -6 -29 -14 -17 -21 -103 -46 -158 -47
-50 0 -93 -12 -77 -21 5 -2 55 -2 112 1 100 6 102 6 102 -16 0 -14 -8 -24 -22
-29 -13 -4 -26 -11 -29 -17 -4 -5 -40 -12 -80 -14 -41 -3 -78 -10 -84 -15 -13
-12 149 -8 188 5 19 6 32 5 41 -3 12 -9 13 -7 9 9 -4 16 -1 21 15 21 11 0 19
-6 18 -14 -1 -16 0 -16 38 -16 18 0 25 7 29 28 3 16 27 53 54 82 29 33 43 55
35 58 -18 6 -14 20 6 18 13 -1 18 8 19 39 2 22 4 48 5 59 2 10 -4 20 -12 21
-8 2 -22 6 -31 9 -10 5 -22 -2 -34 -17 -12 -17 -24 -23 -38 -19 -14 3 -18 1
-13 -6 4 -7 25 -12 47 -12 21 0 39 -4 39 -10 0 -13 -37 -13 -102 2 -58 13 -89
39 -60 49 9 3 17 12 17 20 0 7 11 16 24 19 16 4 27 15 32 33 4 15 3 27 -1 27
-9 0 -1 72 9 80 4 3 7 26 8 53 1 35 -2 47 -13 47 -8 0 -20 11 -26 25 -11 24
-28 34 -28 17z m-170 -222 c0 -5 -4 -10 -10 -10 -5 0 -10 5 -10 10 0 6 5 10
10 10 6 0 10 -4 10 -10z m280 -284 c0 -2 -7 -6 -15 -10 -8 -3 -15 -1 -15 4 0
6 7 10 15 10 8 0 15 -2 15 -4z"/>
<path d="M2040 4299 c0 -5 5 -7 10 -4 6 3 10 8 10 11 0 2 -4 4 -10 4 -5 0 -10
-5 -10 -11z"/>
<path d="M2551 4284 c0 -11 3 -14 6 -6 3 7 2 16 -1 19 -3 4 -6 -2 -5 -13z"/>
<path d="M1753 4263 c-24 -2 -43 -8 -43 -12 0 -29 97 -71 106 -47 3 8 14 12
25 9 10 -3 19 -1 19 4 0 19 -32 53 -48 51 -9 -1 -36 -3 -59 -5z"/>
<path d="M2015 4170 c3 -5 8 -10 11 -10 2 0 4 5 4 10 0 6 -5 10 -11 10 -5 0
-7 -4 -4 -10z"/>
<path d="M2397 4146 c-4 -10 -1 -13 8 -9 8 3 12 9 9 14 -7 12 -11 11 -17 -5z"/>
<path d="M1798 3838 c12 -12 52 -19 52 -9 0 5 -14 11 -30 13 -17 3 -27 1 -22
-4z"/>
<path d="M2280 3810 c0 -13 -7 -20 -20 -20 -11 0 -20 -5 -20 -11 0 -6 12 -9
27 -7 19 2 29 10 34 31 5 20 4 27 -7 27 -8 0 -14 -9 -14 -20z"/>
<path d="M1716 3516 c10 -8 21 -12 24 -10 5 6 -21 24 -34 24 -6 0 -1 -6 10
-14z"/>
<path d="M1696 3345 c-11 -8 -17 -18 -13 -21 10 -11 37 4 37 21 0 18 0 18 -24
0z"/>
<path d="M2141 3314 c-25 -32 -26 -44 -5 -44 11 0 14 5 10 16 -7 17 17 47 29
36 5 -4 5 -1 1 6 -10 17 -12 16 -35 -14z"/>
<path d="M2080 3305 c0 -14 5 -25 10 -25 6 0 10 11 10 25 0 14 -4 25 -10 25
-5 0 -10 -11 -10 -25z"/>
<path d="M2231 2824 c0 -11 3 -14 6 -6 3 7 2 16 -1 19 -3 4 -6 -2 -5 -13z"/>
<path d="M2480 2744 c0 -8 5 -12 10 -9 6 3 10 10 10 16 0 5 -4 9 -10 9 -5 0
-10 -7 -10 -16z"/>
<path d="M2530 2720 c0 -5 5 -10 10 -10 6 0 10 5 10 10 0 6 -4 10 -10 10 -5 0
-10 -4 -10 -10z"/>
<path d="M2601 2664 c0 -11 3 -14 6 -6 3 7 2 16 -1 19 -3 4 -6 -2 -5 -13z"/>
<path d="M1414 2599 c-3 -6 -1 -16 5 -22 8 -8 11 -5 11 11 0 24 -5 28 -16 11z"/>
<path d="M1424 2533 c4 -16 11 -46 16 -68 10 -47 59 -160 66 -153 2 3 -5 36
-16 74 -11 38 -27 93 -36 122 -15 53 -42 75 -30 25z"/>
<path d="M1585 2089 c10 -35 23 -45 18 -15 -3 15 -10 29 -15 32 -6 4 -7 -2 -3
-17z"/>
<path d="M1660 1751 c0 -6 10 -17 22 -25 17 -12 24 -13 30 -3 15 24 8 37 -22
37 -16 0 -30 -4 -30 -9z"/>
<path d="M2915 6370 c-3 -5 -4 -10 -1 -10 2 0 11 -3 20 -6 11 -4 16 -1 16 10
0 18 -25 22 -35 6z"/>
<path d="M562 4590 c0 -14 2 -19 5 -12 2 6 2 18 0 25 -3 6 -5 1 -5 -13z"/>
<path d="M531 4444 c0 -11 3 -14 6 -6 3 7 2 16 -1 19 -3 4 -6 -2 -5 -13z"/>
<path d="M3145 2238 c-25 -80 -31 -116 -19 -111 16 6 21 19 29 77 7 42 0 64
-10 34z"/>
<path d="M2976 2045 c-3 -8 -1 -15 4 -15 6 0 10 7 10 15 0 8 -2 15 -4 15 -2 0
-6 -7 -10 -15z"/>
<path d="M5 1810 c-3 -5 -1 -10 4 -10 6 0 11 5 11 10 0 6 -2 10 -4 10 -3 0 -8
-4 -11 -10z"/>
<path d="M2 1690 c0 -19 2 -27 5 -17 2 9 2 25 0 35 -3 9 -5 1 -5 -18z"/>
<path d="M0 1415 c0 -8 7 -15 15 -15 19 0 19 16 0 24 -9 3 -15 0 -15 -9z"/>
<path d="M2730 789 c0 -5 5 -7 10 -4 6 3 10 8 10 11 0 2 -4 4 -10 4 -5 0 -10
-5 -10 -11z"/>
<path d="M2730 690 c0 -16 4 -30 9 -30 4 0 8 13 7 30 -1 39 -16 39 -16 0z"/>
<path d="M2700 89 c0 -5 5 -7 10 -4 6 3 10 8 10 11 0 2 -4 4 -10 4 -5 0 -10
-5 -10 -11z"/>
<path d="M2700 39 c0 -5 5 -7 10 -4 6 3 10 8 10 11 0 2 -4 4 -10 4 -5 0 -10
-5 -10 -11z"/>
</g>
</svg>
